<?xml version="1.0" encoding="utf-8"?>
<svg version="1.1" xmlns="http://www.w3.org/2000/svg" xmlns:xlink="http://www.w3.org/1999/xlink" viewBox="0 0 348 49"  style="enable-background:new 0 0 348 49;" xml:space="preserve">
	<path fill="#000000" d="M235.69 15.21c-3.4-4.14-2.84-6.34 1.1-5.81 2.62.35 11.19 4.78 19.15 14.4l10.37 12.56c3.89 4.7 5.66 8.31 6.54 12.27h9.38c-1-5.81-3.19-11-10.11-19.38l-7.31-8.85C254.71 8.14 242.68 0 229.6.02c-10 0-11.63 8.26-3.26 18.42l14.16 17.14c5.11 6.17 9.8 11 11.89 12.64a.33.33 0 0 0 .2 0h14.33c-4.91-3.12-10.86-8.84-15.2-13.85zM55.59 1.28L80 48.48h10.13L71.61 14.03h.31l35.73 34.82h12.79L70.54 1.28zm242-.33l38.68 45.19h-.32L279.62.98h-11.4l39.71 47.19h11.32l-22.79-25.64h-.1l32.18 26h19.68l-40-47.58zm-168.91.23l38.63 45.19h-.32L110.71 1.2H99.32l39.7 47.18h11.29L127.1 22.74h.32l32.18 26h19.68l-40-47.59zm87.41 34.33L200.25 1.08h-9.79l11.79 23.57h-.32L170.47 1.11h-13.92l49.29 36.35 9.47 11.24h11.91zM51.13 48.98h9.84a24.27 24.27 0 0 0-5.57-12.25H44.59c3.89 4.69 5.65 8.3 6.54 12.25M41.59 18.2h-12.3c-6-5.51-11.47-8.16-13.46-8.43-3.95-.53-4.51 1.68-1.1 5.81l16 19.15c4.33 5 10.28 10.72 15.18 13.84H31.6a.32.32 0 0 1-.2-.06c-2.08-1.63-6.77-6.45-11.87-12.63L5.38 18.77C-2.98 8.62-1.32.38 8.64.37c12.13 0 23.35 7 33 17.79"></path>
</svg>