<?xml version="1.0" encoding="utf-8"?>
<svg version="1.1" xmlns="http://www.w3.org/2000/svg" xmlns:xlink="http://www.w3.org/1999/xlink" x="0px" y="0px" viewBox="338 117.2 165 86" style="enable-background:new 338 117.2 165 86;" xml:space="preserve">
	<!--
		.orange		{ fill: #E57200; }
		.coolGrey	{ fill: #5A7E92; }
	-->
	<style type="text/css">
		.orange		{ fill: #000000; }
		.coolGrey	{ fill: #000000; }
	</style>
	<g>
		<path class="orange" d="M430.9,152.8c0,0,21.8,8.6,21.8,11.5c0,6.9-49.1,20.8-49.1,20.8h14.8c0,0,42.7-11.8,42.7-20 c0-5.3-27.3-12.4-27.3-12.4L430.9,152.8z"/>
		<path class="orange" d="M446.3,152.8c0,0,37.2,7,36.6,13.6c-1,8.8-22.8,18.9-22.8,18.9h11.1c0,0,19.4-10.2,19.4-19.1 c0-8.3-40.3-13.3-40.3-13.3L446.3,152.8z"/>

		<path class="coolGrey" d="M365.7,137.2c-2.1,0-2.9,0.9-2.9,3.3v1.5h6.5l-0.8,5h-5.7v23.5h-7.5v-23.5h-4.8v-5h4.8V140 c0-6.9,4.3-8.9,9.1-8.9c4.1,0,7.1,1.3,7.1,1.3v5.5C371.4,137.9,367.9,137.2,365.7,137.2z"/>
		<path class="coolGrey" d="M374.7,170.5v-38.8h7.5v38.8H374.7z M390.5,171l-7.7-16.7l6.3-12.4h8.7l-7.4,12.2l8.6,16.5L390.5,171z"/>
		<path class="coolGrey" d="M417.7,170.5l-0.8-2.6c0,0-2.8,3.1-7.7,3.1c-3.5,0-8.1-1.5-8.1-9.2c0-7.8,6.4-9.2,10.7-9.2h4.9v-2.1 c0-2.8-1.5-3.2-4.1-3.2c-4,0-9,1.6-9,1.6v-6c0,0,4.9-1.7,10.3-1.7c5.6,0,10.3,1.4,10.3,9.3v19.9L417.7,170.5L417.7,170.5z M416.7,156.8l-2.2,0.1c-4.2,0.1-5.9,1.1-5.9,4.8c0,3,1.4,3.8,3.3,3.8c2.7,0,4.8-1.4,4.8-1.4V156.8L416.7,156.8z"/>
	</g>
</svg>